PathFileType	4	(X/Y/Z)	Patient4_TMGait_0pt7_02_right_07.trc.trc
DataRate	CameraRate	NumFrames	NumMarkers	Units	OrigDataRate	OrigDataStartFrame	OrigNumFrames
86.956521739130	86.956521739130	6	33	mm	86.956521739130	71	       141
Frame#	Time	Sacral			L.Shoulder			Chest			R.Shoulder			Neck			R.ASIS			L.ASIS			R.Thigh.Superior			R.Thigh.Lateral			R.Thigh.Inferior			R.Patella			L.Thigh.Superior			L.Thigh.Lateral			L.Thigh.Inferior			L.Patella			L.Shank.Superior			L.Shank.Lateral			L.Shank.Inferior			R.Shank.Superior			R.Shank.Lateral			R.Shank.Inferior			R.Heel			R.Midfoot.Superior			R.Midfoot.Lateral			R.Toe			L.Heel			L.Midfoot.Lateral			L.Midfoot.Superior			L.Toe			L.Elbow			L.Wrist			R.Elbow			R.Wrist			
		X1	Y1	Z1	X2	Y2	Z2	X3	Y3	Z3	X4	Y4	Z4	X5	Y5	Z5	X6	Y6	Z6	X7	Y7	Z7	X8	Y8	Z8	X9	Y9	Z9	X10	Y10	Z10	X11	Y11	Z11	X12	Y12	Z12	X13	Y13	Z13	X14	Y14	Z14	X15	Y15	Z15	X16	Y16	Z16	X17	Y17	Z17	X18	Y18	Z18	X19	Y19	Z19	X20	Y20	Z20	X21	Y21	Z21	X22	Y22	Z22	X23	Y23	Z23	X24	Y24	Z24	X25	Y25	Z25	X26	Y26	Z26	X27	Y27	Z27	X28	Y28	Z28	X29	Y29	Z29	X30	Y30	Z30	X31	Y31	Z31	X32	Y32	Z32	X33	Y33	Z33	

71	7.845000000000	769.669889889367	1003.034108815211	513.385503365041	960.957151660801	1412.708561374276	311.429396802941	1071.460765125138	1339.902662734559	467.001512104594	1005.296690197025	1427.864948438408	641.263240718197	976.328793061450	1476.003385291580	464.759385768166	992.121367413961	931.397201887222	630.884616871483	978.719192079851	935.691943344748	354.148270773918	981.006397515939	716.089479721889	612.148342118190	867.527518947748	629.513208947139	670.008852724634	927.764872384681	558.870723941105	594.470696811664	905.140870282139	475.310260126138	598.500143535873	1055.458258259383	769.228051935358	394.363897650376	1021.559818794541	639.664747703790	308.892227045305	1125.763646836146	588.357388420840	376.155329852756	1156.291948850452	521.995934042019	373.126712253270	1140.226942471390	446.939040027606	359.412271208125	1076.813209130636	317.988405474122	302.655560008489	1162.157273706569	218.340128281817	359.304035620906	864.728465492099	393.593465718973	604.967631408028	777.545553888983	301.607791820193	665.107258491208	807.192623790723	201.363645634848	603.003079127202	656.640791792842	43.977251921315	569.278531643974	826.481375229617	96.085858701367	611.677213315353	736.091520793399	37.005638035507	647.598983719315	944.816908067592	41.373518152322	646.872531707268	1079.570327360948	39.805160901756	389.424110542730	1156.409359637480	46.910420000280	312.160824284765	1225.914086006130	122.155982747635	339.283380736704	1360.671105132402	93.027822810962	317.464271900267	786.831155046994	1105.657328286535	228.775503690354	711.415946796531	858.304286061055	244.872427172089	1129.465945529401	1117.772974306221	765.360678668129	1360.361836229148	1149.557762551282	667.940266822639	
72	7.856500000000	771.719490374078	1000.846091008547	510.287578058838	961.665425081211	1411.216404238376	308.878168670879	1071.825511936598	1339.368142608961	465.098706276623	1003.811172627397	1427.203550867245	638.796694315697	975.723189078927	1474.697802379403	462.139539740607	993.922900509056	929.752381317649	629.294895677233	982.079324289405	933.949472063410	352.916709058073	982.224480979309	714.185274785699	610.503893998162	868.116970468502	628.080237114236	668.301503506104	927.917622572422	556.982599401002	592.818838845677	904.288497047044	472.916000599384	596.708189576607	1057.845788727368	764.585209348547	393.326917217234	1021.120215215079	635.858726287026	308.249186495878	1124.432566068697	583.214516498515	375.866093911129	1153.044186406769	516.494829643295	373.214748941574	1137.149851132221	441.993965339600	358.993155635223	1073.198699839791	313.183102054832	303.067835568188	1158.246846753081	213.593154139782	359.968096494314	862.460327325696	391.710600210776	603.545168197805	773.846933995719	301.336820118656	664.207111516944	801.409898942163	200.528972550465	602.331419101541	648.623075370395	44.508410716578	569.313268882676	818.682464065318	96.146747395202	611.570013846940	728.086814293820	37.269538580519	647.571262854318	936.819064165665	41.041077294470	647.001670998354	1073.834466717289	37.819710434245	391.317436939672	1150.083748707197	43.257073537276	313.335848292470	1221.548738075062	116.221902457940	340.273144474370	1355.427157366745	83.545221821946	317.358082485028	786.006540719415	1105.815050277354	226.409064937599	708.202080942626	859.036682537198	243.795800384469	1134.207571346228	1120.506592841988	762.250746200395	1360.746408432464	1165.819088129505	662.035861824627	
73	7.868000000000	773.715833006190	998.787409580890	507.260513524104	962.472534163236	1409.761763580058	306.183037281191	1072.300652987236	1338.907053903390	463.060774491620	1002.499657929577	1426.675800143452	636.210172862792	975.273855858930	1473.518510676678	459.297612532042	995.739199468086	928.125816549287	627.550567059677	985.203461897803	932.547572919641	351.615528139156	983.806667210145	712.394941791194	608.540207790544	869.362536435186	626.564366016735	666.394222286378	928.833340735737	555.078140413774	590.942671656250	904.281490904331	470.331608454846	594.760479872282	1060.383711610519	760.785097710462	392.058167866355	1021.238174084940	632.948913950489	307.428788416182	1123.791125471370	579.196034587185	375.375952882329	1150.566125664848	511.917022187510	373.115812013192	1134.711270682359	437.777181132311	358.535922749375	1069.954402035028	309.346750956076	303.077663230218	1153.979912389359	209.445958145564	360.533001216497	860.836872482752	389.727795792054	601.977937196458	770.662798390079	301.181160920013	663.214434353810	795.930194069090	199.790806515157	601.616733823029	640.664882029694	45.454952489221	569.395615478562	811.041343580059	96.280072663575	611.478828357608	720.149316622919	37.757385995038	647.563250153952	928.876477553653	40.657019532208	647.139515998555	1066.785523277769	36.704815620533	392.950398943258	1142.553197837538	40.282491496155	314.323551474299	1216.212483238364	110.757252282156	341.195741524027	1349.146093955543	74.093423149866	317.300113256504	786.170530739928	1105.305593042653	224.031179252231	706.193001508197	859.082570500592	242.419634782497	1138.151029472667	1122.994516417057	759.308315566767	1359.792832348898	1180.973195345850	656.579924945371	
74	7.879500000000	775.604120010759	996.966113326183	504.345767136791	963.362210430304	1408.429118933711	303.394739300974	1072.885999268519	1338.543128328842	460.903373200264	1001.471633718494	1426.331820282245	633.537969129712	975.044765430976	1472.539387060556	456.289245055796	997.501478806539	926.626991656167	625.641942513545	987.996852555206	931.575544435185	350.172938237673	985.679866868461	710.820397280616	606.286290589207	871.201157174446	625.051154716478	664.303287151599	930.495641249621	553.246414650532	588.895154392654	905.149909773244	467.625205277109	592.761194671291	1063.004449502708	758.052246984715	390.501045099092	1021.935789366144	631.041755347290	306.401711506951	1123.841425026179	576.409422499410	374.645171573876	1148.935138531324	508.425930924597	372.818900645622	1133.004111604331	434.421380165940	358.058684591766	1067.298985297970	306.580979676918	302.592965033202	1149.574550058283	206.032930820484	360.955827417880	859.857707738299	387.736511721499	600.336110967683	767.981056039394	301.243138703649	662.151540642055	790.791852659722	199.251599337332	600.900272456849	632.804094962428	46.968189825523	569.530612677080	803.616819549797	96.506642199723	611.427138613538	712.305223680719	38.549012295887	647.579656598686	920.994325419893	40.231339477200	647.278139515649	1058.898748526480	36.294621329282	394.186350008445	1134.329372953456	38.040370405481	315.043009092568	1210.171716084012	106.065349844846	341.989554997098	1342.188717685161	65.419031202593	317.309227358406	787.335844778784	1104.166673670178	221.625990774896	705.502123945288	858.431819177979	240.708053571992	1141.271725483677	1125.158739832786	756.574618977387	1357.644241805069	1194.848641612360	651.600599342102	
75	7.891000000000	777.347083568987	995.475318676780	501.561084716391	964.302714599903	1407.307256937982	300.570254078475	1073.569041358863	1338.305994357032	458.647204926140	1000.812428521467	1426.218357115258	630.818753715505	975.076725949371	1471.830062158540	453.186964620671	999.154933058598	925.367618796872	623.557503094649	990.402600527037	931.093059666491	348.510978729051	987.772640063545	709.560558453495	603.785538646403	873.559824376798	623.635122886414	662.058443253727	932.877171030846	551.581937308100	586.747649604662	906.911045037895	464.881081664281	590.841889276560	1065.645475729146	756.513184393160	388.614385218350	1023.174882591636	630.142728802100	305.154118795533	1124.509405320590	574.829601892090	373.636411513997	1148.125988114268	506.050192654577	372.305365322726	1132.001456961911	431.950204213195	357.565299235080	1065.267758388814	304.879413318607	301.618015586656	1145.134111570127	203.397855442026	361.219520608190	859.521087087090	385.840001012840	598.714954022646	765.789101622653	301.632636259145	661.053701294491	786.039374491069	199.018113395916	600.235023478888	625.090644548004	49.202460356850	569.720234132550	796.472280985169	96.845185422889	611.442539088256	704.584576011772	39.726148375269	647.624077563062	913.172362630459	39.779576241339	647.406862736153	1050.556786630663	36.390456333940	394.975773077946	1125.798816820232	36.510177559416	315.469196663046	1203.607343092145	102.336240126711	342.615893125629	1334.811854439805	58.091412761955	317.374062302644	789.485521027548	1102.478134165069	219.177150798709	706.239480670642	857.102784335410	238.637181144552	1143.547242658984	1126.938905271020	754.077397406097	1354.457063132731	1207.296538436985	647.110587574047	
76	7.902500000000	778.928564644191	994.381644577156	498.896352701051	965.250093287434	1406.479493884721	297.765403881384	1074.326145226365	1338.229361285152	456.315433651917	1000.568893936841	1426.371708923399	628.091829499466	975.380339893190	1471.447685999805	450.072822476521	1000.665038158600	924.447034557135	621.284880103239	992.408059759425	931.121759281749	346.558875303831	990.024904998629	708.697443832231	601.096834600521	876.362552743270	622.406859857375	659.701822118060	935.944414267554	550.171979713120	584.586183728477	909.568102355655	462.190798745496	589.148722575748	1068.248780574216	756.160945108109	386.377870587024	1024.829560425348	630.139768544752	303.696177826772	1125.637497151308	574.292762749485	372.321966936490	1147.999224794208	504.680200051270	371.562749193516	1131.553950356362	430.281231914349	357.048421126550	1063.722735063285	304.124881648673	300.253560702945	1140.666859165952	201.495374572362	361.330828120352	859.829590465076	384.140001763834	597.223873194902	764.080953106419	302.454525133305	659.965300554437	781.723023715075	199.189830888575	599.679831153319	617.587159646927	52.302109554613	569.961550337044	789.670874802129	97.310837848451	611.552724612561	697.020455262399	41.368097444242	647.697637640982	905.403797907852	39.320033895949	647.513398452877	1042.038591886814	36.793036474894	395.343215404392	1117.220920241544	35.607587253746	315.624296065941	1196.640994924278	99.625987245829	343.064139657319	1327.186686567831	52.423625297584	317.468991847282	792.566976341960	1100.357654002979	216.668498940814	708.500291978622	855.144422928486	236.199515674629	1144.954817842207	1128.296625725984	751.830069143287	1350.395052472933	1218.197928197106	643.107422880940	
